<svg width="17" height="18" viewBox="0 0 17 18" fill="none" xmlns="http://www.w3.org/2000/svg">
<path d="M1.35184 6.94325C1.39676 6.89015 1.45282 6.84896 1.51551 6.823C1.57819 6.79705 1.64575 6.78704 1.71275 6.7938C1.77975 6.80055 1.84431 6.82388 1.90126 6.8619C1.9582 6.89992 2.00592 6.95157 2.04059 7.0127C2.26469 7.41273 2.58739 7.73795 2.93062 7.99786C3.69413 8.57651 4.61898 8.86394 5.55695 8.86394H8.14622C8.3662 8.86394 8.47015 8.73274 8.50419 8.53935C8.52377 8.4156 8.51158 8.28855 8.4689 8.1715C8.42622 8.05446 8.35462 7.95174 8.2616 7.8741C7.5704 7.28072 7.07578 6.4692 6.84965 5.5575C6.62351 4.6458 6.67763 3.68143 7.00416 2.80456C7.33068 1.92769 7.91259 1.18403 8.66529 0.681658C9.418 0.179288 10.3023 -0.0556064 11.1896 0.011117C13.0567 0.146906 14.5966 1.60978 14.9823 3.5002C14.9912 3.54334 15.0117 3.58282 15.0414 3.61389C15.071 3.64496 15.1084 3.66629 15.1492 3.67531C15.6937 3.79125 16.2448 3.86873 16.7989 3.90725C16.8345 3.90991 16.8688 3.92183 16.899 3.94196C16.9291 3.96209 16.9541 3.9898 16.9717 4.02262C16.9893 4.05545 16.999 4.09237 16.9999 4.13012C17.0008 4.16787 16.9929 4.20527 16.9769 4.239C16.5207 5.21182 15.7181 5.90405 15.0014 6.36276C14.7084 6.54881 14.4519 6.7929 14.2459 7.0817L14.2317 7.1017C14.0995 7.2894 14.0391 7.52321 14.0628 7.75614C14.0865 7.98907 14.1925 8.20386 14.3595 8.35735C16.0491 9.94899 16.3956 11.4116 16.3908 12.6625C16.386 14.3352 15.5158 15.7477 14.1552 16.5955C10.893 18.6281 6.47223 18.0946 4.38599 17.2336C2.78842 16.5739 1.26896 15.448 0.603027 13.7743C-0.75948 10.3501 0.494186 7.95814 1.35184 6.94325ZM12.9257 4.43217C13.0675 4.43218 13.2061 4.38763 13.324 4.30415C13.4419 4.22067 13.5338 4.10202 13.5881 3.9632C13.6423 3.82437 13.6565 3.67161 13.6289 3.52423C13.6012 3.37686 13.5329 3.24148 13.4327 3.13522C13.3324 3.02896 13.2047 2.9566 13.0656 2.92728C12.9265 2.89796 12.7824 2.91301 12.6514 2.97051C12.5204 3.02801 12.4084 3.12539 12.3296 3.25033C12.2508 3.37527 12.2088 3.52216 12.2088 3.67242C12.2088 3.87391 12.2843 4.06715 12.4188 4.20963C12.5532 4.35211 12.7355 4.43216 12.9257 4.43217Z" fill="url(#paint0_linear_7627_1780)"/>
<defs>
<linearGradient id="paint0_linear_7627_1780" x1="17" y1="9" x2="0" y2="9" gradientUnits="userSpaceOnUse">
<stop stop-color="#E25377"/>
<stop offset="0.490385" stop-color="#EEB902"/>
<stop offset="1" stop-color="#62B4FF"/>
</linearGradient>
</defs>
</svg>
