<svg width="1400" height="645" viewBox="0 0 1400 645" fill="none" xmlns="http://www.w3.org/2000/svg">
<g filter="url(#filter0_f_336_442)">
<path d="M167.5 -9L195.003 75.6454H284.004L212.001 127.959L239.504 212.605L167.5 160.291L95.4963 212.605L122.999 127.959L50.9956 75.6454H139.997L167.5 -9Z" fill="#EEB902"/>
</g>
<g filter="url(#filter1_f_336_442)">
<path d="M528.5 12L556.003 96.6454H645.004L573.001 148.959L600.504 233.605L528.5 181.291L456.496 233.605L483.999 148.959L411.996 96.6454H500.997L528.5 12Z" fill="#F28FD2"/>
</g>
<g filter="url(#filter2_f_336_442)">
<path d="M993.5 123L1021 207.645H1110L1038 259.959L1065.5 344.605L993.5 292.291L921.496 344.605L948.999 259.959L876.996 207.645H965.997L993.5 123Z" fill="#62B4FF"/>
</g>
<g filter="url(#filter3_f_336_442)">
<path d="M1251.5 -9L1279 75.6454H1368L1296 127.959L1323.5 212.605L1251.5 160.291L1179.5 212.605L1207 127.959L1135 75.6454H1224L1251.5 -9Z" fill="#E25377"/>
</g>
<defs>
<filter id="filter0_f_336_442" x="-249.005" y="-309" width="833.01" height="821.604" filterUnits="userSpaceOnUse" color-interpolation-filters="sRGB">
<feFlood flood-opacity="0" result="BackgroundImageFix"/>
<feBlend mode="normal" in="SourceGraphic" in2="BackgroundImageFix" result="shape"/>
<feGaussianBlur stdDeviation="150" result="effect1_foregroundBlur_336_442"/>
</filter>
<filter id="filter1_f_336_442" x="111.995" y="-288" width="833.01" height="821.604" filterUnits="userSpaceOnUse" color-interpolation-filters="sRGB">
<feFlood flood-opacity="0" result="BackgroundImageFix"/>
<feBlend mode="normal" in="SourceGraphic" in2="BackgroundImageFix" result="shape"/>
<feGaussianBlur stdDeviation="150" result="effect1_foregroundBlur_336_442"/>
</filter>
<filter id="filter2_f_336_442" x="576.995" y="-177" width="833.01" height="821.604" filterUnits="userSpaceOnUse" color-interpolation-filters="sRGB">
<feFlood flood-opacity="0" result="BackgroundImageFix"/>
<feBlend mode="normal" in="SourceGraphic" in2="BackgroundImageFix" result="shape"/>
<feGaussianBlur stdDeviation="150" result="effect1_foregroundBlur_336_442"/>
</filter>
<filter id="filter3_f_336_442" x="834.995" y="-309" width="833.01" height="821.604" filterUnits="userSpaceOnUse" color-interpolation-filters="sRGB">
<feFlood flood-opacity="0" result="BackgroundImageFix"/>
<feBlend mode="normal" in="SourceGraphic" in2="BackgroundImageFix" result="shape"/>
<feGaussianBlur stdDeviation="150" result="effect1_foregroundBlur_336_442"/>
</filter>
</defs>
</svg>
