<svg width="18" height="18" viewBox="0 0 18 18" fill="none" xmlns="http://www.w3.org/2000/svg">
<path d="M2.74285 7.31707C2.77961 7.27363 2.82548 7.23993 2.87677 7.21869C2.92805 7.19745 2.98333 7.18926 3.03815 7.19479C3.09296 7.20032 3.14579 7.2194 3.19238 7.25051C3.23897 7.28162 3.27801 7.32388 3.30638 7.3739C3.48974 7.70119 3.75377 7.96728 4.03459 8.17993C4.65928 8.65337 5.41597 8.88854 6.1834 8.88854H8.30189C8.48188 8.88854 8.56693 8.7812 8.59478 8.62297C8.6108 8.52172 8.60083 8.41777 8.56591 8.32201C8.53099 8.22624 8.47241 8.1422 8.3963 8.07867C7.83077 7.59318 7.42609 6.92921 7.24106 6.18327C7.05604 5.43734 7.10033 4.64831 7.36748 3.93087C7.63464 3.21343 8.11074 2.60498 8.72659 2.19395C9.34244 1.78292 10.0659 1.59073 10.7919 1.64533C12.3196 1.75643 13.5795 2.95332 13.8951 4.50003C13.9024 4.53533 13.9191 4.56763 13.9434 4.59305C13.9676 4.61847 13.9983 4.63592 14.0316 4.6433C14.4771 4.73816 14.928 4.80156 15.3814 4.83307C15.4105 4.83525 15.4386 4.845 15.4632 4.86147C15.4879 4.87794 15.5084 4.90061 15.5228 4.92747C15.5372 4.95432 15.5451 4.98454 15.5458 5.01542C15.5466 5.04631 15.5401 5.07691 15.527 5.1045C15.1538 5.90045 14.4971 6.46682 13.9107 6.84213C13.6709 6.99435 13.4611 7.19406 13.2925 7.43035L13.281 7.44671C13.1727 7.60029 13.1233 7.79158 13.1427 7.98216C13.1621 8.17274 13.2489 8.34848 13.3855 8.47406C14.7679 9.77631 15.0514 10.973 15.0475 11.9965C15.0436 13.3651 14.3315 14.5207 13.2183 15.2143C10.5493 16.8774 6.93227 16.4409 5.22535 15.7365C3.91824 15.1967 2.67505 14.2755 2.13019 12.9061C1.01542 10.1045 2.04114 8.14743 2.74285 7.31707ZM12.2124 5.26255C12.3284 5.26256 12.4418 5.22611 12.5383 5.15781C12.6347 5.08951 12.7099 4.99243 12.7543 4.87885C12.7987 4.76526 12.8103 4.64028 12.7877 4.51969C12.7651 4.39911 12.7092 4.28835 12.6272 4.20141C12.5451 4.11447 12.4406 4.05527 12.3268 4.03128C12.2131 4.00729 12.0951 4.0196 11.9879 4.06665C11.8807 4.11369 11.7891 4.19337 11.7247 4.29559C11.6602 4.39781 11.6258 4.518 11.6258 4.64094C11.6258 4.8058 11.6876 4.9639 11.7976 5.08047C11.9076 5.19705 12.0568 5.26254 12.2124 5.26255Z" fill="#232325"/>
</svg>
