<svg width="79" height="23" viewBox="0 0 79 23" fill="none" xmlns="http://www.w3.org/2000/svg">
<rect x="0.5" y="0.5" width="78" height="22" rx="11" stroke="#F0F1F1"/>
<path d="M11.188 16V7.42H16.696V8.488H12.124L12.424 8.2V15.244L12.124 14.944H14.536C15 14.944 15.368 14.816 15.64 14.56C15.912 14.296 16.048 13.94 16.048 13.492C16.048 13.036 15.912 12.684 15.64 12.436C15.368 12.18 15 12.052 14.536 12.052H11.86V10.996H14.524C15.092 10.996 15.584 11.1 16 11.308C16.416 11.508 16.736 11.796 16.96 12.172C17.192 12.548 17.308 12.988 17.308 13.492C17.308 13.988 17.192 14.428 16.96 14.812C16.728 15.188 16.404 15.48 15.988 15.688C15.58 15.896 15.092 16 14.524 16H11.188ZM22.8953 14.248L23.6033 15.004C23.2913 15.404 22.9193 15.704 22.4873 15.904C22.0633 16.096 21.5993 16.192 21.0953 16.192C20.4713 16.192 19.9233 16.056 19.4513 15.784C18.9873 15.512 18.6233 15.136 18.3593 14.656C18.0953 14.176 17.9633 13.632 17.9633 13.024C17.9633 12.416 18.0913 11.872 18.3473 11.392C18.6113 10.912 18.9633 10.536 19.4033 10.264C19.8513 9.984 20.3553 9.844 20.9153 9.844C21.4593 9.844 21.9393 9.98 22.3553 10.252C22.7713 10.516 23.0953 10.884 23.3273 11.356C23.5673 11.828 23.6873 12.368 23.6873 12.976V13.048H22.4993V12.928C22.4993 12.288 22.3553 11.78 22.0673 11.404C21.7873 11.028 21.3993 10.84 20.9033 10.84C20.5673 10.84 20.2713 10.928 20.0153 11.104C19.7593 11.28 19.5593 11.532 19.4153 11.86C19.2713 12.188 19.1993 12.568 19.1993 13C19.1993 13.44 19.2753 13.824 19.4273 14.152C19.5873 14.472 19.8113 14.728 20.0993 14.92C20.3953 15.104 20.7473 15.196 21.1553 15.196C21.5153 15.196 21.8393 15.116 22.1273 14.956C22.4153 14.796 22.6713 14.56 22.8953 14.248ZM23.6873 13.408H18.8153V12.544H23.5073L23.6873 12.976V13.408ZM29.0576 14.26L29.8376 15.028C29.5576 15.396 29.2096 15.684 28.7936 15.892C28.3776 16.092 27.9176 16.192 27.4136 16.192C26.8216 16.192 26.2936 16.056 25.8296 15.784C25.3736 15.512 25.0136 15.14 24.7496 14.668C24.4936 14.188 24.3656 13.64 24.3656 13.024C24.3656 12.4 24.4976 11.852 24.7616 11.38C25.0256 10.9 25.3856 10.524 25.8416 10.252C26.3056 9.98 26.8336 9.844 27.4256 9.844C28.4496 9.844 29.2576 10.232 29.8496 11.008L29.0456 11.776C28.8696 11.488 28.6456 11.268 28.3736 11.116C28.1016 10.956 27.7936 10.876 27.4496 10.876C26.9136 10.876 26.4736 11.072 26.1296 11.464C25.7936 11.848 25.6256 12.368 25.6256 13.024C25.6256 13.664 25.7976 14.184 26.1416 14.584C26.4856 14.976 26.9296 15.172 27.4736 15.172C27.8096 15.172 28.1096 15.096 28.3736 14.944C28.6376 14.784 28.8656 14.556 29.0576 14.26ZM30.7293 16V10.036H35.8893V16H34.6893V10.708L35.0133 11.032H31.6053L31.9293 10.708V16H30.7293ZM36.7439 16V14.992H37.1999C37.3839 14.992 37.5199 14.94 37.6079 14.836C37.7039 14.724 37.7639 14.532 37.7879 14.26L38.1479 10.036H42.3599V16H41.1599V10.828L41.3519 11.032H39.0359L39.2399 10.84L38.9159 14.476C38.8599 15.044 38.7119 15.44 38.4719 15.664C38.2319 15.888 37.8679 16 37.3799 16H36.7439ZM48.5686 16H47.4766V14.824L47.4406 14.548V12.316C47.4406 11.852 47.3006 11.488 47.0206 11.224C46.7406 10.952 46.3566 10.816 45.8686 10.816C45.2286 10.816 44.6686 11.08 44.1886 11.608L43.4926 10.864C44.1886 10.184 45.0126 9.844 45.9646 9.844C46.4926 9.844 46.9486 9.944 47.3326 10.144C47.7246 10.344 48.0286 10.628 48.2446 10.996C48.4606 11.356 48.5686 11.784 48.5686 12.28V16ZM45.4606 16.192C45.0366 16.192 44.6606 16.112 44.3326 15.952C44.0126 15.784 43.7606 15.556 43.5766 15.268C43.3926 14.98 43.3006 14.652 43.3006 14.284C43.3006 13.668 43.5366 13.188 44.0086 12.844C44.4886 12.492 45.1326 12.316 45.9406 12.316H47.5486V13.168H46.0486C45.5686 13.168 45.1926 13.264 44.9206 13.456C44.6566 13.64 44.5246 13.9 44.5246 14.236C44.5246 14.54 44.6286 14.788 44.8366 14.98C45.0526 15.164 45.3406 15.256 45.7006 15.256C46.0446 15.256 46.3526 15.18 46.6246 15.028C46.8966 14.876 47.1166 14.668 47.2846 14.404C47.4526 14.14 47.5486 13.836 47.5726 13.492L47.9446 13.696C47.9446 14.184 47.8366 14.616 47.6206 14.992C47.4126 15.368 47.1206 15.664 46.7446 15.88C46.3766 16.088 45.9486 16.192 45.4606 16.192ZM49.0673 11.032V10.036H54.2153V11.032H49.0673ZM51.0473 16V10.42H52.2353V16H51.0473ZM55.0378 16V10.036H56.2378V16H55.0378ZM59.0818 16V10.036H60.2818V16H59.0818ZM55.5778 13.36V12.376H59.8018V13.36H55.5778ZM64.3626 16.192C63.7786 16.192 63.2546 16.056 62.7906 15.784C62.3346 15.512 61.9746 15.136 61.7106 14.656C61.4546 14.176 61.3266 13.632 61.3266 13.024C61.3266 12.408 61.4546 11.86 61.7106 11.38C61.9746 10.9 62.3346 10.524 62.7906 10.252C63.2546 9.98 63.7786 9.844 64.3626 9.844C64.9626 9.844 65.4906 9.98 65.9466 10.252C66.4106 10.524 66.7706 10.9 67.0266 11.38C67.2906 11.86 67.4226 12.404 67.4226 13.012C67.4226 13.628 67.2906 14.176 67.0266 14.656C66.7706 15.136 66.4106 15.512 65.9466 15.784C65.4906 16.056 64.9626 16.192 64.3626 16.192ZM64.3746 15.172C64.7346 15.172 65.0466 15.08 65.3106 14.896C65.5746 14.712 65.7826 14.46 65.9346 14.14C66.0866 13.812 66.1626 13.44 66.1626 13.024C66.1626 12.592 66.0866 12.22 65.9346 11.908C65.7906 11.588 65.5826 11.336 65.3106 11.152C65.0466 10.968 64.7346 10.876 64.3746 10.876C64.0146 10.876 63.6986 10.968 63.4266 11.152C63.1626 11.336 62.9546 11.588 62.8026 11.908C62.6586 12.22 62.5866 12.592 62.5866 13.024C62.5866 13.44 62.6586 13.812 62.8026 14.14C62.9546 14.46 63.1626 14.712 63.4266 14.896C63.6986 15.08 64.0146 15.172 64.3746 15.172Z" fill="#F0F1F1"/>
</svg>
