<svg width="26" height="26" viewBox="0 0 26 26" fill="none" xmlns="http://www.w3.org/2000/svg">
<g clip-path="url(#clip0_137_13500)">
<path d="M8.66699 7.58333C8.66699 8.7326 9.12354 9.8348 9.9362 10.6475C10.7489 11.4601 11.8511 11.9167 13.0003 11.9167C14.1496 11.9167 15.2518 11.4601 16.0645 10.6475C16.8771 9.8348 17.3337 8.7326 17.3337 7.58333C17.3337 6.43406 16.8771 5.33186 16.0645 4.5192C15.2518 3.70655 14.1496 3.25 13.0003 3.25C11.8511 3.25 10.7489 3.70655 9.9362 4.5192C9.12354 5.33186 8.66699 6.43406 8.66699 7.58333Z" stroke="#232325" stroke-width="2" stroke-linecap="round" stroke-linejoin="round"/>
<path d="M6.5 22.75V20.5833C6.5 19.4341 6.95655 18.3319 7.7692 17.5192C8.58186 16.7065 9.68406 16.25 10.8333 16.25H15.1667C16.3159 16.25 17.4181 16.7065 18.2308 17.5192C19.0435 18.3319 19.5 19.4341 19.5 20.5833V22.75" stroke="#232325" stroke-width="2" stroke-linecap="round" stroke-linejoin="round"/>
</g>
<defs>
<clipPath id="clip0_137_13500">
<rect width="26" height="26" fill="white"/>
</clipPath>
</defs>
</svg>
